<svg width="142" height="40" viewBox="0 0 142 40" fill="none" xmlns="http://www.w3.org/2000/svg">
<g clip-path="url(#clip0)">
<path d="M9.02538 26.6667C12.2085 31.675 19.1534 33.9009 24.6737 31.6973C30.194 29.4936 33.6664 23.0829 32.509 17.251C31.6408 12.8436 28.3019 9.01503 24.0727 7.47914C19.5095 5.80969 13.0766 6.58877 10.2719 10.8626C7.11108 15.6261 5.77552 21.5693 9.02538 26.6667Z" fill="#1D957F"/>
<path d="M32.509 17.2732C31.8857 14.1347 30.0159 11.2855 27.4561 9.34891C27.9458 10.3506 28.3242 11.419 28.5468 12.5097C29.7043 18.3417 26.2318 24.7524 20.7115 26.956C16.6381 28.581 11.8078 27.8019 8.26855 25.2643C8.49115 25.754 8.75826 26.2215 9.04763 26.6889C12.2307 31.6973 19.1756 33.9232 24.6959 31.7195C30.1717 29.4936 33.6442 23.1052 32.509 17.2732Z" fill="#25602E"/>
<path d="M24.5402 9.8386C26.5435 11.3522 30.3498 4.11795 30.3498 4.11795L31.7077 5.14188C31.7077 5.14188 25.8312 10.818 27.8568 12.3316" fill="#1D957F"/>
<path d="M32.509 5.52028C32.9319 3.67276 29.7266 1.89201 29.3037 3.91761C28.903 5.87643 32.0193 7.65718 32.509 5.52028Z" fill="#1D957F"/>
<path d="M30.973 3.606C30.6169 3.09404 29.4594 3.47245 29.8601 4.02893C30.2607 4.56315 31.3737 4.18475 30.973 3.606Z" fill="#25602E"/>
<path d="M32.3754 4.42959C32.3754 4.54089 32.3532 4.65219 32.3309 4.76348C31.9302 6.45519 29.9046 5.67612 29.2814 4.3183C29.3259 6.09904 32.0638 7.52364 32.509 5.5203C32.598 5.14189 32.5312 4.76348 32.3754 4.42959Z" fill="#25602E"/>
<path d="M31.0176 18.8536C30.795 21.3689 38.9419 20.7679 38.9419 20.7679L38.7861 22.4596C38.7861 22.4596 30.8618 20.4786 30.6392 22.9939" fill="#25602E"/>
<path d="M38.8974 23.35C40.6782 22.749 40.5223 19.0762 38.5635 19.7885C36.6937 20.4786 36.8273 24.0623 38.8974 23.35Z" fill="#25602E"/>
<path d="M39.6987 21.0128C39.9435 20.434 39.0086 19.6772 38.7415 20.3005C38.5189 20.9237 39.4093 21.6806 39.6987 21.0128Z" fill="#1D957F"/>
<path d="M39.7433 22.66C39.6542 22.7268 39.543 22.7713 39.4317 22.7935C37.7845 23.35 37.3615 21.2131 38.2074 19.9666C36.716 20.946 36.9609 24.0178 38.8974 23.35C39.2536 23.2165 39.543 22.9716 39.7433 22.66Z" fill="#1D957F"/>
<path d="M27.3671 27.4902C25.5863 28.3361 29.2591 33.5893 29.2591 33.5893L28.0571 34.168C28.0571 34.168 26.2096 28.0467 24.4288 28.9148" fill="#25602E"/>
<path d="M27.5229 34.591C28.6581 35.5481 31.0399 33.9677 29.7934 32.9438C28.5691 31.9421 26.2096 33.478 27.5229 34.591Z" fill="#25602E"/>
<path d="M29.4149 34.1903C29.9046 34.1236 30.0382 33.1887 29.5039 33.2777C28.992 33.3445 28.8584 34.2571 29.4149 34.1903Z" fill="#1D957F"/>
<path d="M28.3242 34.8803C28.2575 34.8358 28.1684 34.7913 28.1016 34.7245C27.0555 33.8564 28.3242 32.6989 29.504 32.7657C28.2352 32.1424 26.2764 33.5448 27.5006 34.591C27.7455 34.769 28.0349 34.8581 28.3242 34.8803Z" fill="#1D957F"/>
<path d="M22.6481 30.6288C20.1328 30.6956 21.6464 38.7312 21.6464 38.7312L19.9547 38.7758C19.9547 38.7758 21.0009 30.6734 18.4856 30.7624" fill="#25602E"/>
<path d="M19.0866 38.9761C19.9102 40.6901 23.5385 40.0891 22.5814 38.2415C21.691 36.4608 18.1518 36.995 19.0866 38.9761Z" fill="#25602E"/>
<path d="M19.8879 39.7551C19.8211 39.6661 19.7544 39.5771 19.7098 39.4658C18.953 37.9076 21.0454 37.2176 22.381 37.9076C21.2235 36.5276 18.2185 37.1286 19.0866 38.9761C19.2647 39.3322 19.554 39.5771 19.8879 39.7551Z" fill="#1D957F"/>
<path d="M14.5679 9.50474C16.9052 8.54759 12.6091 1.58043 12.6091 1.58043L14.1673 0.934906C14.1673 0.934906 16.0816 8.88148 18.3966 7.90207" fill="#1D957F"/>
<path d="M14.9241 0.445181C13.544 -0.868119 10.3832 0.979405 11.8968 2.38174C13.3882 3.73956 16.5045 1.95881 14.9241 0.445181Z" fill="#1D957F"/>
<path d="M12.4756 0.801331C11.8523 0.84585 11.6075 2.02559 12.2752 1.95882C12.943 1.9143 13.1879 0.756812 12.4756 0.801331Z" fill="#25602E"/>
<path d="M13.9002 0C13.9892 0.066778 14.0782 0.133556 14.1673 0.222593C15.4361 1.4246 13.7221 2.78242 12.2307 2.6266C13.7889 3.49471 16.3932 1.86978 14.9241 0.445187C14.6347 0.178075 14.2786 0.0445187 13.9002 0Z" fill="#25602E"/>
<path d="M9.18122 18.0078C10.0271 15.6261 1.99146 14.2015 1.99146 14.2015L2.54794 12.5988C2.54794 12.5988 9.75996 16.4719 10.5613 14.0679" fill="#1D957F"/>
<path d="M2.65921 11.7084C0.767167 11.8642 0.032609 15.4702 2.10273 15.2476C4.08381 15.0473 4.84062 11.5303 2.65921 11.7084Z" fill="#1D957F"/>
<path d="M1.30135 13.7785C0.922943 14.2682 1.63524 15.2476 2.03591 14.6911C2.43658 14.1569 1.74654 13.1998 1.30135 13.7785Z" fill="#25602E"/>
<path d="M1.65759 12.1759C1.76889 12.1536 1.88019 12.1313 1.99148 12.1091C3.72771 11.9755 3.61641 14.1347 2.50345 15.1586C4.19516 14.5799 4.70712 11.5526 2.68152 11.7084C2.25859 11.7529 1.9247 11.931 1.65759 12.1759Z" fill="#25602E"/>
<path d="M13.1211 28.1358C11.652 26.0879 5.8868 31.8754 5.8868 31.8754L4.88513 30.4953C4.88513 30.4953 12.1639 26.778 10.6726 24.7524" fill="#25602E"/>
<path d="M4.23964 29.9165C3.28249 31.5637 5.82006 34.2125 6.82173 32.3873C7.77888 30.6288 5.33035 28.0245 4.23964 29.9165Z" fill="#25602E"/>
<path d="M5.15221 32.2092C5.35254 32.8102 6.55454 32.7657 6.33195 32.1202C6.10936 31.4969 4.92961 31.5192 5.15221 32.2092Z" fill="#1D957F"/>
<path d="M4.03925 31.0072C4.06151 30.8959 4.10603 30.8069 4.17281 30.6956C5.04092 29.182 6.77715 30.5175 6.95522 32.0311C7.44493 30.3172 5.24125 28.158 4.21732 29.9165C4.03925 30.2504 3.99473 30.6288 4.03925 31.0072Z" fill="#1D957F"/>
<path d="M20.4221 8.10238C22.2919 8.5253 22.6481 2.29269 22.6481 2.29269L23.9168 2.55981C23.9168 2.55981 21.6464 8.36949 23.5162 8.77016" fill="#1D957F"/>
<path d="M24.6068 2.58207C24.3175 1.15747 21.5351 0.93488 21.8689 2.47077C22.2251 3.98441 24.9407 4.22926 24.6068 2.58207Z" fill="#1D957F"/>
<path d="M22.9152 1.73622C22.5145 1.49137 21.8245 2.13689 22.2919 2.38174C22.7371 2.6266 23.4049 2.02559 22.9152 1.73622Z" fill="#25602E"/>
<path d="M24.1618 1.86978C24.2063 1.93656 24.2285 2.0256 24.2508 2.11463C24.5179 3.40567 22.8485 3.51697 21.9803 2.76015C22.5813 3.98442 24.9186 4.09571 24.6069 2.58208C24.5624 2.29271 24.3843 2.04786 24.1618 1.86978Z" fill="#25602E"/>
<path d="M29.1923 13.8453C30.2384 15.4479 34.8461 11.2409 34.8461 11.2409L35.5584 12.3316C35.5584 12.3316 29.8823 14.9137 30.9507 16.5164" fill="#25602E"/>
<path d="M36.0482 12.7991C36.8273 11.5748 34.9798 9.46019 34.1562 10.818C33.3549 12.1313 35.1356 14.2014 36.0482 12.7991Z" fill="#25602E"/>
<path d="M35.425 11.0184C35.2914 10.5509 34.3788 10.5509 34.5123 11.0406C34.6681 11.5303 35.5808 11.5526 35.425 11.0184Z" fill="#1D957F"/>
<path d="M36.2262 11.9755C36.2039 12.0646 36.1594 12.1313 36.1149 12.1981C35.4026 13.3111 34.1338 12.2426 34.0448 11.0851C33.6219 12.3762 35.2245 14.0902 36.0481 12.7769C36.2039 12.5543 36.2485 12.2649 36.2262 11.9755Z" fill="#1D957F"/>
<path d="M17.4394 30.7624C15.859 29.6717 13.2102 35.3255 13.2102 35.3255L12.1417 34.591C12.1417 34.591 16.4155 30.0501 14.8128 28.9816" fill="#25602E"/>
<path d="M11.5184 34.3239C11.2513 35.7485 13.7666 36.995 14.0114 35.4368C14.2563 33.9232 11.8077 32.6767 11.5184 34.3239Z" fill="#25602E"/>
<path d="M12.7649 35.7262C13.0543 36.1046 13.9224 35.7707 13.5885 35.3701C13.2769 34.9694 12.431 35.3033 12.7649 35.7262Z" fill="#1D957F"/>
<path d="M11.652 35.1474C11.652 35.0584 11.652 34.9694 11.6742 34.9026C11.9191 33.5893 13.4995 34.1013 14.0115 35.1252C13.9224 33.7674 11.7855 32.788 11.4962 34.3239C11.4516 34.6132 11.5184 34.9026 11.652 35.1474Z" fill="#1D957F"/>
<path d="M30.0605 25.0417C29.2369 26.7779 35.2246 28.5142 35.2246 28.5142L34.6681 29.6939C34.6681 29.6939 29.5262 26.1769 28.7026 27.9132" fill="#25602E"/>
<path d="M34.5123 30.3617C35.9591 30.4062 36.805 27.7351 35.2246 27.7129C33.6887 27.7129 32.8428 30.3172 34.5123 30.3617Z" fill="#25602E"/>
<path d="M35.7144 28.8926C36.0483 28.5365 35.5808 27.7574 35.2246 28.1358C34.8685 28.5142 35.3137 29.2933 35.7144 28.8926Z" fill="#1D957F"/>
<path d="M35.3136 30.0723C35.2246 30.0946 35.1355 30.0946 35.0687 30.0946C33.7332 30.0501 34.0003 28.4251 34.9352 27.7351C33.5996 28.0467 32.9764 30.2949 34.5345 30.3394C34.8016 30.3617 35.0687 30.2504 35.3136 30.0723Z" fill="#1D957F"/>
<path d="M10.4278 12.7991C11.7633 11.4191 6.64368 7.85756 6.64368 7.85756L7.53405 6.92267C7.53405 6.92267 11.2959 11.9088 12.6314 10.5064" fill="#1D957F"/>
<path d="M7.91247 6.3439C6.55465 5.8542 4.8852 8.10239 6.39883 8.61435C7.84569 9.10406 9.47062 6.92264 7.91247 6.3439Z" fill="#1D957F"/>
<path d="M6.30976 7.34557C5.88683 7.56817 6.0649 8.4808 6.53235 8.21369C6.95527 7.96883 6.79946 7.07846 6.30976 7.34557Z" fill="#25602E"/>
<path d="M7.06652 6.34388C7.15556 6.34388 7.22233 6.36614 7.31137 6.41066C8.5579 6.85584 7.77882 8.34722 6.68811 8.68111C8.04593 8.81466 9.38149 6.8781 7.91237 6.34388C7.623 6.23258 7.33363 6.25484 7.06652 6.34388Z" fill="#25602E"/>
<path d="M9.47058 23.7284C9.22573 21.8141 3.23797 23.5726 3.23797 23.5726L3.08215 22.2816C3.08215 22.2816 9.31476 22.4819 9.06991 20.5676" fill="#1D957F"/>
<path d="M2.88184 21.6583C1.63532 22.4151 2.36988 25.1085 3.70544 24.2627C4.99648 23.4391 4.30644 20.7902 2.88184 21.6583Z" fill="#1D957F"/>
<path d="M2.63697 23.5281C2.54793 23.9955 3.37153 24.4185 3.46056 23.9065C3.5496 23.3945 2.74827 22.9939 2.63697 23.5281Z" fill="#25602E"/>
<path d="M2.34753 22.3038C2.41431 22.237 2.48109 22.1925 2.54787 22.148C3.68309 21.458 4.35087 22.9938 3.92795 24.0623C4.8851 23.0829 4.19506 20.8347 2.8595 21.636C2.61465 21.8141 2.45883 22.0367 2.34753 22.3038Z" fill="#25602E"/>
<path d="M12.2085 14.246C11.9636 14.2014 11.7188 14.1569 11.4739 14.246C11.229 14.335 11.0732 14.5576 10.9842 14.8247C10.9174 15.0696 10.9174 15.3367 10.9619 15.5815C11.14 16.5387 11.8523 17.4068 12.7649 17.7184C13.7221 18.0746 15.1689 17.4513 14.7905 16.227C14.5012 15.2476 13.1656 14.4685 12.2085 14.246Z" fill="#25602E"/>
<path d="M26.3208 19.6105C26.4766 19.3211 26.5879 18.9872 26.5657 18.6756C26.5212 18.3417 26.2986 18.03 26.0092 17.852C25.7198 17.6739 25.3637 17.5849 25.0298 17.5626C23.7165 17.4513 22.3809 18.0746 21.6464 19.1653C20.8673 20.3005 21.1789 22.3706 22.8706 22.2816C24.273 22.2148 25.7198 20.7679 26.3208 19.6105Z" fill="#25602E"/>
<path d="M13.0543 20.9683C12.6759 20.8792 12.2975 20.8124 11.9414 20.946C11.563 21.0796 11.2958 21.4135 11.1623 21.7919C11.0287 22.1703 11.0287 22.5709 11.0733 22.9716C11.2736 24.4852 12.342 25.8431 13.7444 26.4218C15.2135 27.0228 17.4839 26.1547 16.972 24.2404C16.5268 22.6377 14.5234 21.3689 13.0543 20.9683Z" fill="#25602E"/>
<path d="M16.037 18.8759C15.8812 19.0095 15.7254 19.1653 15.6586 19.3434C15.5918 19.5437 15.6586 19.7885 15.7699 19.9666C15.8812 20.1447 16.0593 20.2782 16.2596 20.3895C16.9719 20.7902 17.9068 20.768 18.5968 20.345C19.3314 19.8998 19.6875 18.6311 18.6859 18.2526C17.8623 17.9188 16.6603 18.3639 16.037 18.8759Z" fill="#25602E"/>
<path d="M18.6414 25.3756C18.6637 25.5537 18.7305 25.754 18.8418 25.8876C18.9753 26.0211 19.1756 26.0879 19.376 26.0657C19.5763 26.0434 19.7544 25.9766 19.9325 25.8653C20.578 25.4647 20.9787 24.7301 20.9564 23.9733C20.9341 23.1942 20.0883 22.3484 19.3315 22.9494C18.7082 23.4836 18.5301 24.6411 18.6414 25.3756Z" fill="#25602E"/>
<path d="M17.1945 9.88315C16.7048 9.97218 16.2151 10.128 15.8812 10.5287C15.5251 10.9293 15.4138 11.5526 15.5028 12.1313C15.5919 12.7101 15.8367 13.2666 16.1484 13.7563C17.3281 15.6483 19.3982 16.8281 21.3793 16.739C23.4494 16.65 25.5195 14.1124 23.7388 11.8642C22.2474 10.039 19.1534 9.527 17.1945 9.88315Z" fill="#25602E"/>
<path d="M10.4055 26.5109C11.0733 26.8225 11.7856 27.0896 12.4979 27.2899L10.6726 24.7746C11.051 25.2866 10.873 25.8876 10.4055 26.5109Z" fill="#1D957F"/>
<path d="M27.9681 9.77185C27.8123 10.217 27.6119 10.64 27.5451 11.0852C27.5006 11.3077 27.5006 11.5303 27.5229 11.7529C27.5451 11.8642 27.5897 11.9755 27.6342 12.0646C27.6787 12.1536 27.7677 12.2426 27.8568 12.3317C27.7455 12.2649 27.6564 12.1981 27.5897 12.1091C27.5229 12.02 27.4561 11.9087 27.4116 11.7752C27.3671 11.6639 27.3671 11.5303 27.3671 11.419C27.3671 11.3077 27.3671 11.1742 27.3893 11.0629C27.4338 10.818 27.5006 10.5954 27.6119 10.3951C27.7232 10.1725 27.8345 9.97218 27.9681 9.77185Z" fill="#25602E"/>
<path d="M24.54 9.83864C24.7404 9.94994 24.963 10.0167 25.1856 9.99446C25.4082 9.9722 25.6307 9.90542 25.8311 9.79412C26.0314 9.68282 26.2317 9.57153 26.4098 9.43797C26.5879 9.28216 26.766 9.1486 26.9663 9.01505C26.8105 9.19312 26.6547 9.37119 26.4766 9.52701C26.2985 9.68282 26.0982 9.81638 25.8979 9.92768C25.6753 10.039 25.4527 10.1058 25.2078 10.1058C25.0743 10.1058 24.963 10.0835 24.8517 10.039C24.7181 9.99445 24.6291 9.92768 24.54 9.83864Z" fill="#25602E"/>
<path d="M32.5089 21.7696C32.3086 21.8141 32.1082 21.8809 31.9301 21.9254C31.7298 21.9922 31.5517 22.0367 31.3737 22.1258C31.1956 22.2148 31.0398 22.3261 30.9062 22.4597C30.7727 22.5932 30.6836 22.7713 30.6391 22.9716C30.6168 22.7713 30.6836 22.5487 30.8172 22.3706C30.9507 22.1925 31.1288 22.059 31.3069 21.97C31.6853 21.8364 32.1082 21.7696 32.5089 21.7696Z" fill="#25602E"/>
<path d="M31.0175 18.8536C31.0175 19.0762 31.0843 19.2543 31.1956 19.4324C31.3069 19.5882 31.4627 19.744 31.6185 19.8553C31.7743 19.9666 31.9746 20.0779 32.1527 20.1669C32.3308 20.256 32.5311 20.345 32.7315 20.434C32.5311 20.4118 32.3085 20.3673 32.1082 20.2782C31.9079 20.2115 31.7075 20.1224 31.5295 19.9889C31.3514 19.8553 31.1956 19.6995 31.0843 19.4992C30.9952 19.2988 30.973 19.054 31.0175 18.8536Z" fill="#25602E"/>
<path d="M16.549 6.96716C16.8161 7.23427 17.0609 7.52365 17.3725 7.72398C17.5284 7.83528 17.6842 7.90205 17.8622 7.94657C18.0403 7.99109 18.2184 7.99109 18.3965 7.92431C18.2407 8.03561 18.0403 8.08013 17.84 8.05787C17.6397 8.03561 17.4616 7.94657 17.2835 7.85753C16.9719 7.61268 16.727 7.30105 16.549 6.96716Z" fill="#25602E"/>
<path d="M14.5679 9.50473C14.7459 9.39343 14.9018 9.25988 14.9908 9.0818C15.0798 8.90373 15.1466 8.72565 15.1689 8.52532C15.1911 8.32498 15.1911 8.12465 15.1911 7.92432C15.1911 7.72398 15.1689 7.52365 15.1689 7.30106C15.3024 7.70172 15.3692 8.10239 15.3247 8.54758C15.3024 8.74791 15.2357 8.9705 15.1021 9.14858C14.9685 9.32665 14.7682 9.46021 14.5679 9.50473Z" fill="#25602E"/>
<path d="M8.224 14.7802C8.44659 14.7802 8.66919 14.8025 8.89178 14.8025C9.11437 14.8025 9.33697 14.8025 9.5373 14.7579C9.73763 14.7357 9.96023 14.6689 10.1383 14.5576C10.3164 14.4463 10.4722 14.2905 10.5612 14.0901C10.5167 14.3127 10.3832 14.5131 10.2051 14.6466C10.027 14.7802 9.78215 14.8692 9.55956 14.8915C9.33697 14.936 9.11437 14.936 8.89178 14.9137C8.66919 14.8915 8.44659 14.847 8.224 14.7802Z" fill="#25602E"/>
<path d="M9.18115 18.0078C9.22567 17.7852 9.20341 17.5626 9.13663 17.3846C9.06985 17.1842 8.9363 17.0061 8.80274 16.8503C8.66918 16.6945 8.49111 16.561 8.31303 16.4274C8.13496 16.2938 7.95688 16.1603 7.77881 16.0267C7.97914 16.1158 8.17948 16.2048 8.37981 16.3384C8.58015 16.4497 8.73596 16.6055 8.89178 16.7613C9.04759 16.9394 9.18115 17.1174 9.22567 17.3623C9.3147 17.5626 9.29245 17.8075 9.18115 18.0078Z" fill="#25602E"/>
<path d="M13.1211 28.1358C12.943 27.9355 12.7204 27.8242 12.4756 27.7796C12.2307 27.7351 11.9859 27.7796 11.741 27.8242C11.2513 27.9355 10.7839 28.1358 10.3164 28.3361C10.7393 28.0468 11.2068 27.8019 11.7187 27.6683C11.9636 27.6238 12.253 27.5793 12.5201 27.6461C12.7649 27.7351 13.0098 27.9132 13.1211 28.1358Z" fill="#25602E"/>
<path d="M22.8038 7.12299C22.8484 7.45688 22.8706 7.79077 22.9597 8.08014C23.0042 8.23595 23.0709 8.36951 23.16 8.50306C23.249 8.63662 23.3826 8.72566 23.5384 8.79243C23.3603 8.79243 23.2045 8.7034 23.071 8.5921C22.9374 8.45854 22.8706 8.30273 22.8038 8.14691C22.7593 7.96884 22.7371 7.81302 22.7371 7.63495C22.7371 7.43462 22.7593 7.2788 22.8038 7.12299Z" fill="#25602E"/>
<path d="M20.4221 8.1024C20.5779 8.1024 20.7337 8.08014 20.8673 8.01336C21.0009 7.94658 21.1122 7.83529 21.2235 7.72399C21.4238 7.5014 21.5796 7.21203 21.7799 6.94492C21.7354 7.10073 21.6909 7.25655 21.6241 7.41236C21.5573 7.56818 21.4683 7.70173 21.357 7.83529C21.2457 7.96884 21.1122 8.08014 20.9341 8.12466C20.756 8.16918 20.5779 8.16918 20.4221 8.1024Z" fill="#25602E"/>
<path d="M31.6853 14.6912C31.4627 14.9805 31.2401 15.2254 31.062 15.537C30.973 15.6928 30.9062 15.8486 30.8839 16.0045C30.8617 16.1603 30.8839 16.3384 30.9507 16.4942C30.8172 16.3606 30.7504 16.1825 30.7727 15.9822C30.7727 15.7819 30.8394 15.6038 30.9285 15.448C31.0175 15.2922 31.1288 15.1363 31.2624 15.0251C31.3959 14.8915 31.5295 14.7802 31.6853 14.6912Z" fill="#25602E"/>
<path d="M29.1923 13.8453C29.3258 13.9789 29.4816 14.0679 29.6597 14.1124C29.8378 14.157 30.0159 14.1347 30.1939 14.1124C30.5501 14.0679 30.9062 13.9344 31.2624 13.8231C30.9507 14.0457 30.5946 14.2015 30.2162 14.2682C30.0159 14.2905 29.8155 14.2905 29.6374 14.2237C29.4371 14.157 29.2813 14.0234 29.1923 13.8453Z" fill="#25602E"/>
<path d="M14.5902 31.3634C14.746 30.9405 14.9464 30.5621 15.0354 30.1392C15.0799 29.9388 15.1244 29.7162 15.1022 29.5159C15.0799 29.3156 14.9909 29.1152 14.8128 28.9594C15.0131 29.0484 15.169 29.271 15.2135 29.4936C15.258 29.7162 15.2357 29.9611 15.169 30.1837C15.0577 30.6289 14.8573 31.0073 14.5902 31.3634Z" fill="#25602E"/>
<path d="M17.4393 30.7624C17.2613 30.6733 17.0609 30.6511 16.8606 30.6956C16.6825 30.7401 16.5044 30.8291 16.3264 30.9404C15.9925 31.163 15.7031 31.4524 15.3915 31.7195C15.6141 31.3634 15.8812 31.0517 16.2373 30.8069C16.4154 30.6956 16.6157 30.5843 16.8383 30.562C17.0609 30.5398 17.2835 30.6066 17.4393 30.7624Z" fill="#25602E"/>
<path d="M26.6547 30.6734C26.3654 30.2504 26.076 29.8275 25.7421 29.4491C25.564 29.271 25.3859 29.093 25.1633 28.9817C24.9408 28.8704 24.6959 28.8258 24.451 28.9149C24.5623 28.8481 24.6959 28.8036 24.8295 28.8036C24.8962 28.8036 24.963 28.8036 25.0298 28.8258C25.0966 28.8481 25.1633 28.8704 25.2301 28.8926C25.475 29.0039 25.6753 29.182 25.8534 29.3823C26.2095 29.7385 26.4544 30.2059 26.6547 30.6734Z" fill="#25602E"/>
<path d="M27.367 27.4903C27.1667 27.6238 27.0331 27.8464 26.9886 28.069C26.9441 28.2916 26.9663 28.5365 26.9886 28.7813C27.0554 29.2488 27.2112 29.7162 27.3448 30.2059C27.0999 29.783 26.9218 29.3155 26.8328 28.8036C26.7883 28.5587 26.7883 28.2916 26.855 28.0467C26.9441 27.7796 27.1444 27.557 27.367 27.4903Z" fill="#25602E"/>
<path d="M19.9547 32.5877C19.8879 32.3873 19.7989 32.187 19.7321 31.9867C19.6431 31.7863 19.5763 31.6082 19.465 31.4302C19.3537 31.2521 19.2202 31.0963 19.0643 30.985C18.9085 30.8737 18.7082 30.7846 18.4856 30.7624C18.6859 30.7179 18.9308 30.7624 19.1089 30.8737C19.3092 30.985 19.4427 31.1631 19.5763 31.3411C19.7989 31.7195 19.9102 32.1647 19.9547 32.5877Z" fill="#25602E"/>
<path d="M22.648 30.6288C22.4476 30.6734 22.2473 30.7401 22.0915 30.8737C21.9357 31.0073 21.8244 31.1631 21.7353 31.3411C21.6463 31.5192 21.5573 31.7196 21.4905 31.8976C21.4237 32.098 21.3569 32.2983 21.2902 32.4986C21.2902 32.2983 21.3124 32.0757 21.3569 31.8754C21.4015 31.675 21.4682 31.4747 21.5795 31.2744C21.6908 31.074 21.8244 30.896 22.0025 30.7847C22.2028 30.6511 22.4476 30.6066 22.648 30.6288Z" fill="#25602E"/>
<path d="M30.0381 27.468C29.771 27.4903 29.5261 27.4903 29.3035 27.5348C29.1922 27.557 29.0809 27.6016 28.9696 27.6683C28.8583 27.7351 28.7693 27.8242 28.7025 27.9132C28.7248 27.7796 28.7916 27.6683 28.9029 27.5793C29.0141 27.4903 29.1254 27.4235 29.259 27.4012C29.3926 27.379 29.5261 27.3567 29.6597 27.379C29.7932 27.379 29.9268 27.4235 30.0381 27.468Z" fill="#25602E"/>
<path d="M30.0604 25.0417C30.0159 25.1753 30.0159 25.3311 30.0382 25.4424C30.0604 25.5759 30.105 25.6872 30.194 25.8208C30.3275 26.0657 30.5279 26.266 30.706 26.4886C30.5724 26.4218 30.4611 26.3328 30.3498 26.2437C30.2385 26.1547 30.1495 26.0434 30.0604 25.9098C29.9937 25.7763 29.9269 25.6205 29.9269 25.4869C29.9269 25.3088 29.9714 25.153 30.0604 25.0417Z" fill="#25602E"/>
<path d="M10.7393 10.217C11.0509 10.3506 11.3625 10.5286 11.6741 10.6177C11.83 10.6622 11.9858 10.6845 12.1639 10.6845C12.3197 10.6622 12.4755 10.6177 12.6313 10.5064C12.5423 10.6622 12.3642 10.7512 12.1861 10.7958C12.008 10.8403 11.8077 10.818 11.6519 10.7512C11.4738 10.7067 11.318 10.6177 11.1622 10.5286C11.0064 10.4396 10.8728 10.3283 10.7393 10.217Z" fill="#25602E"/>
<path d="M10.4276 12.7991C10.5167 12.6656 10.5612 12.5098 10.5834 12.3762C10.6057 12.2204 10.5834 12.0868 10.5389 11.931C10.4499 11.6416 10.2941 11.3523 10.1605 11.0629C10.2718 11.1742 10.3831 11.3077 10.4722 11.4413C10.5612 11.5749 10.628 11.7307 10.6725 11.8865C10.717 12.0423 10.7393 12.2204 10.6947 12.3985C10.6502 12.5543 10.5612 12.6878 10.4276 12.7991Z" fill="#25602E"/>
<path d="M7.26685 21.97C7.64525 21.8141 8.04592 21.6806 8.40207 21.5025C8.58015 21.4135 8.73596 21.3022 8.86952 21.1464C9.00307 20.9905 9.06985 20.8125 9.06985 20.5899C9.13663 20.7902 9.09211 21.0351 8.95856 21.2131C8.825 21.3912 8.64692 21.5248 8.46885 21.6361C8.1127 21.8364 7.68977 21.9254 7.26685 21.97Z" fill="#25602E"/>
<path d="M9.47051 23.7284C9.42599 23.5281 9.29243 23.3723 9.13662 23.261C8.9808 23.1497 8.80273 23.0829 8.60239 23.0384C8.22399 22.9271 7.82332 22.9048 7.40039 22.8603C7.80106 22.7936 8.22399 22.7936 8.62465 22.9049C8.82499 22.9716 9.02532 23.0384 9.18114 23.1942C9.38147 23.3055 9.49277 23.5281 9.47051 23.7284Z" fill="#25602E"/>
<path d="M9.4928 27.4903C9.84895 27.0896 10.2274 26.6889 10.4945 26.2437C10.628 26.0211 10.7393 25.7763 10.8061 25.5314C10.8506 25.2866 10.8061 25.0195 10.6725 24.7746C10.8506 24.975 10.9619 25.2643 10.9174 25.5537C10.8951 25.8431 10.7616 26.0879 10.628 26.3328C10.3387 26.778 9.93799 27.1564 9.4928 27.4903Z" fill="#25602E"/>
<path d="M21.5129 39.5103C22.1139 39.6884 22.7594 38.6645 22.1139 38.4864C21.4683 38.3083 20.8228 39.31 21.5129 39.5103Z" fill="#1D957F"/>
</g>
<path d="M54.5698 26.2514C52.8538 26.2514 51.5098 25.8374 50.5378 25.0094C49.5778 24.1694 49.0678 22.9574 49.0078 21.3734C48.9958 21.0494 48.9898 20.5214 48.9898 19.7894C48.9898 19.0454 48.9958 18.5054 49.0078 18.1694C49.0678 16.6094 49.5898 15.4094 50.5738 14.5694C51.5578 13.7174 52.8898 13.2914 54.5698 13.2914C55.6258 13.2914 56.5738 13.4714 57.4138 13.8314C58.2538 14.1794 58.9138 14.6834 59.3938 15.3434C59.8858 15.9914 60.1378 16.7534 60.1498 17.6294V17.6654C60.1498 17.7614 60.1078 17.8454 60.0238 17.9174C59.9518 17.9774 59.8678 18.0074 59.7718 18.0074H57.3418C57.1858 18.0074 57.0658 17.9774 56.9818 17.9174C56.8978 17.8454 56.8258 17.7194 56.7658 17.5394C56.5978 16.9274 56.3338 16.5014 55.9738 16.2614C55.6138 16.0094 55.1398 15.8834 54.5518 15.8834C53.1358 15.8834 52.4038 16.6754 52.3558 18.2594C52.3438 18.5834 52.3378 19.0814 52.3378 19.7534C52.3378 20.4254 52.3438 20.9354 52.3558 21.2834C52.4038 22.8674 53.1358 23.6594 54.5518 23.6594C55.1398 23.6594 55.6198 23.5334 55.9918 23.2814C56.3638 23.0174 56.6218 22.5914 56.7658 22.0034C56.8138 21.8234 56.8798 21.7034 56.9638 21.6434C57.0478 21.5714 57.1738 21.5354 57.3418 21.5354H59.7718C59.8798 21.5354 59.9698 21.5714 60.0418 21.6434C60.1258 21.7154 60.1618 21.8054 60.1498 21.9134C60.1378 22.7894 59.8858 23.5574 59.3938 24.2174C58.9138 24.8654 58.2538 25.3694 57.4138 25.7294C56.5738 26.0774 55.6258 26.2514 54.5698 26.2514ZM66.2725 26.2514C64.7845 26.2514 63.6385 25.8974 62.8345 25.1894C62.0305 24.4814 61.5925 23.4854 61.5205 22.2014C61.5085 22.0454 61.5025 21.7754 61.5025 21.3914C61.5025 21.0074 61.5085 20.7374 61.5205 20.5814C61.5925 19.3094 62.0425 18.3194 62.8705 17.6114C63.6985 16.8914 64.8325 16.5314 66.2725 16.5314C67.7245 16.5314 68.8645 16.8914 69.6925 17.6114C70.5205 18.3194 70.9705 19.3094 71.0425 20.5814C71.0545 20.7374 71.0605 21.0074 71.0605 21.3914C71.0605 21.7754 71.0545 22.0454 71.0425 22.2014C70.9705 23.4854 70.5325 24.4814 69.7285 25.1894C68.9245 25.8974 67.7725 26.2514 66.2725 26.2514ZM66.2725 24.0554C66.8005 24.0554 67.1905 23.8994 67.4425 23.5874C67.6945 23.2634 67.8385 22.7714 67.8745 22.1114C67.8865 21.9914 67.8925 21.7514 67.8925 21.3914C67.8925 21.0314 67.8865 20.7914 67.8745 20.6714C67.8385 20.0234 67.6885 19.5374 67.4245 19.2134C67.1725 18.8894 66.7885 18.7274 66.2725 18.7274C65.2765 18.7274 64.7485 19.3754 64.6885 20.6714L64.6705 21.3914L64.6885 22.1114C64.7125 22.7714 64.8505 23.2634 65.1025 23.5874C65.3665 23.8994 65.7565 24.0554 66.2725 24.0554ZM73.2984 26.0714C73.1664 26.0714 73.0584 26.0294 72.9744 25.9454C72.8904 25.8614 72.8484 25.7534 72.8484 25.6214V17.1614C72.8484 17.0294 72.8904 16.9214 72.9744 16.8374C73.0584 16.7534 73.1664 16.7114 73.2984 16.7114H75.3684C75.5004 16.7114 75.6084 16.7594 75.6924 16.8554C75.7884 16.9394 75.8364 17.0414 75.8364 17.1614V17.8814C76.4964 17.1014 77.3844 16.7114 78.5004 16.7114H79.2924C79.4244 16.7114 79.5324 16.7534 79.6164 16.8374C79.7004 16.9214 79.7424 17.0294 79.7424 17.1614V19.0154C79.7424 19.1354 79.7004 19.2434 79.6164 19.3394C79.5324 19.4234 79.4244 19.4654 79.2924 19.4654H77.5464C77.0544 19.4654 76.6704 19.6034 76.3944 19.8794C76.1304 20.1434 75.9984 20.5214 75.9984 21.0134V25.6214C75.9984 25.7534 75.9504 25.8614 75.8544 25.9454C75.7704 26.0294 75.6624 26.0714 75.5304 26.0714H73.2984ZM85.3623 26.2514C83.8743 26.2514 82.7283 25.8974 81.9243 25.1894C81.1203 24.4814 80.6823 23.4854 80.6103 22.2014C80.5983 22.0454 80.5923 21.7754 80.5923 21.3914C80.5923 21.0074 80.5983 20.7374 80.6103 20.5814C80.6823 19.3094 81.1323 18.3194 81.9603 17.6114C82.7883 16.8914 83.9223 16.5314 85.3623 16.5314C86.8143 16.5314 87.9543 16.8914 88.7823 17.6114C89.6103 18.3194 90.0603 19.3094 90.1323 20.5814C90.1443 20.7374 90.1503 21.0074 90.1503 21.3914C90.1503 21.7754 90.1443 22.0454 90.1323 22.2014C90.0603 23.4854 89.6223 24.4814 88.8183 25.1894C88.0143 25.8974 86.8623 26.2514 85.3623 26.2514ZM85.3623 24.0554C85.8903 24.0554 86.2803 23.8994 86.5323 23.5874C86.7843 23.2634 86.9283 22.7714 86.9643 22.1114C86.9763 21.9914 86.9823 21.7514 86.9823 21.3914C86.9823 21.0314 86.9763 20.7914 86.9643 20.6714C86.9283 20.0234 86.7783 19.5374 86.5143 19.2134C86.2623 18.8894 85.8783 18.7274 85.3623 18.7274C84.3663 18.7274 83.8383 19.3754 83.7783 20.6714L83.7603 21.3914L83.7783 22.1114C83.8023 22.7714 83.9403 23.2634 84.1923 23.5874C84.4563 23.8994 84.8463 24.0554 85.3623 24.0554ZM92.3882 26.0714C92.2562 26.0714 92.1482 26.0294 92.0642 25.9454C91.9802 25.8614 91.9382 25.7534 91.9382 25.6214V17.1614C91.9382 17.0294 91.9802 16.9214 92.0642 16.8374C92.1482 16.7534 92.2562 16.7114 92.3882 16.7114H94.4582C94.5902 16.7114 94.6982 16.7534 94.7822 16.8374C94.8782 16.9214 94.9262 17.0294 94.9262 17.1614V17.8454C95.2502 17.4494 95.6642 17.1314 96.1682 16.8914C96.6842 16.6514 97.2662 16.5314 97.9142 16.5314C98.9702 16.5314 99.8282 16.8914 100.488 17.6114C101.148 18.3194 101.478 19.3154 101.478 20.5994V25.6214C101.478 25.7414 101.436 25.8494 101.352 25.9454C101.268 26.0294 101.16 26.0714 101.028 26.0714H98.7602C98.6402 26.0714 98.5322 26.0294 98.4362 25.9454C98.3522 25.8494 98.3102 25.7414 98.3102 25.6214V20.7074C98.3102 20.1434 98.1722 19.7114 97.8962 19.4114C97.6202 19.0994 97.2242 18.9434 96.7082 18.9434C96.2042 18.9434 95.8082 19.0994 95.5202 19.4114C95.2322 19.7114 95.0882 20.1434 95.0882 20.7074V25.6214C95.0882 25.7414 95.0462 25.8494 94.9622 25.9454C94.8782 26.0294 94.7702 26.0714 94.6382 26.0714H92.3882Z" fill="#1D957F"/>
<path d="M106.313 26.2514C105.677 26.2514 105.095 26.1314 104.567 25.8914C104.051 25.6394 103.643 25.3034 103.343 24.8834C103.055 24.4514 102.911 23.9774 102.911 23.4614C102.911 22.6334 103.247 21.9674 103.919 21.4634C104.603 20.9594 105.539 20.6114 106.727 20.4194L108.977 20.0774V19.8254C108.977 19.3694 108.881 19.0334 108.689 18.8174C108.497 18.6014 108.173 18.4934 107.717 18.4934C107.441 18.4934 107.213 18.5414 107.033 18.6374C106.853 18.7334 106.667 18.8654 106.475 19.0334C106.307 19.1774 106.181 19.2734 106.097 19.3214C106.061 19.4174 105.995 19.4654 105.899 19.4654H103.937C103.817 19.4654 103.715 19.4294 103.631 19.3574C103.559 19.2734 103.529 19.1774 103.541 19.0694C103.553 18.7454 103.709 18.3854 104.009 17.9894C104.321 17.5934 104.789 17.2514 105.413 16.9634C106.049 16.6754 106.829 16.5314 107.753 16.5314C109.229 16.5314 110.321 16.8614 111.029 17.5214C111.737 18.1694 112.091 19.0454 112.091 20.1494V25.6214C112.091 25.7414 112.049 25.8494 111.965 25.9454C111.881 26.0294 111.773 26.0714 111.641 26.0714H109.553C109.433 26.0714 109.325 26.0294 109.229 25.9454C109.145 25.8494 109.103 25.7414 109.103 25.6214V24.9914C108.839 25.3634 108.467 25.6694 107.987 25.9094C107.519 26.1374 106.961 26.2514 106.313 26.2514ZM107.159 24.1994C107.711 24.1994 108.155 24.0194 108.491 23.6594C108.839 23.2994 109.013 22.7714 109.013 22.0754V21.8234L107.483 22.0934C106.403 22.2854 105.863 22.6634 105.863 23.2274C105.863 23.5274 105.989 23.7674 106.241 23.9474C106.493 24.1154 106.799 24.1994 107.159 24.1994ZM114.572 29.4914C114.452 29.4914 114.344 29.4494 114.248 29.3654C114.164 29.2814 114.122 29.1734 114.122 29.0414V17.1614C114.122 17.0294 114.164 16.9214 114.248 16.8374C114.344 16.7534 114.452 16.7114 114.572 16.7114H116.606C116.738 16.7114 116.846 16.7534 116.93 16.8374C117.014 16.9214 117.056 17.0294 117.056 17.1614V17.8094C117.704 16.9574 118.634 16.5314 119.846 16.5314C121.022 16.5314 121.94 16.8974 122.6 17.6294C123.26 18.3614 123.62 19.3934 123.68 20.7254C123.692 20.8814 123.698 21.1034 123.698 21.3914C123.698 21.6794 123.692 21.9014 123.68 22.0574C123.632 23.3534 123.272 24.3794 122.6 25.1354C121.928 25.8794 121.01 26.2514 119.846 26.2514C118.67 26.2514 117.794 25.8494 117.218 25.0454V29.0414C117.218 29.1734 117.176 29.2814 117.092 29.3654C117.008 29.4494 116.9 29.4914 116.768 29.4914H114.572ZM118.874 23.8394C119.438 23.8394 119.84 23.6714 120.08 23.3354C120.332 22.9994 120.476 22.5374 120.512 21.9494C120.536 21.7094 120.548 21.5234 120.548 21.3914C120.548 21.2594 120.536 21.0734 120.512 20.8334C120.476 20.2454 120.332 19.7834 120.08 19.4474C119.84 19.1114 119.438 18.9434 118.874 18.9434C118.322 18.9434 117.914 19.1174 117.65 19.4654C117.398 19.8014 117.254 20.2394 117.218 20.7794L117.2 21.4454L117.218 22.1294C117.242 22.6214 117.392 23.0294 117.668 23.3534C117.944 23.6774 118.346 23.8394 118.874 23.8394ZM125.927 29.4914C125.807 29.4914 125.699 29.4494 125.603 29.3654C125.519 29.2814 125.477 29.1734 125.477 29.0414V17.1614C125.477 17.0294 125.519 16.9214 125.603 16.8374C125.699 16.7534 125.807 16.7114 125.927 16.7114H127.961C128.093 16.7114 128.201 16.7534 128.285 16.8374C128.369 16.9214 128.411 17.0294 128.411 17.1614V17.8094C129.059 16.9574 129.989 16.5314 131.201 16.5314C132.377 16.5314 133.295 16.8974 133.955 17.6294C134.615 18.3614 134.975 19.3934 135.035 20.7254C135.047 20.8814 135.053 21.1034 135.053 21.3914C135.053 21.6794 135.047 21.9014 135.035 22.0574C134.987 23.3534 134.627 24.3794 133.955 25.1354C133.283 25.8794 132.365 26.2514 131.201 26.2514C130.025 26.2514 129.149 25.8494 128.573 25.0454V29.0414C128.573 29.1734 128.531 29.2814 128.447 29.3654C128.363 29.4494 128.255 29.4914 128.123 29.4914H125.927ZM130.229 23.8394C130.793 23.8394 131.195 23.6714 131.435 23.3354C131.687 22.9994 131.831 22.5374 131.867 21.9494C131.891 21.7094 131.903 21.5234 131.903 21.3914C131.903 21.2594 131.891 21.0734 131.867 20.8334C131.831 20.2454 131.687 19.7834 131.435 19.4474C131.195 19.1114 130.793 18.9434 130.229 18.9434C129.677 18.9434 129.269 19.1174 129.005 19.4654C128.753 19.8014 128.609 20.2394 128.573 20.7794L128.555 21.4454L128.573 22.1294C128.597 22.6214 128.747 23.0294 129.023 23.3534C129.299 23.6774 129.701 23.8394 130.229 23.8394Z" fill="black"/>
<defs>
<clipPath id="clip0">
<rect width="39.2877" height="40" fill="white" transform="translate(0.856201)"/>
</clipPath>
</defs>
</svg>
